<svg xmlns="http://www.w3.org/2000/svg" viewBox="0 0 800 200">
  <defs>
    <linearGradient id="bg" x1="0%" y1="0%" x2="100%" y2="100%">
      <stop offset="0%" style="stop-color:#4f46e5"/>
      <stop offset="100%" style="stop-color:#6366f1"/>
    </linearGradient>
    <linearGradient id="accent" x1="0%" y1="0%" x2="0%" y2="100%">
      <stop offset="0%" style="stop-color:#ffffff;stop-opacity:0.15"/>
      <stop offset="100%" style="stop-color:#ffffff;stop-opacity:0"/>
    </linearGradient>
  </defs>

  <!-- Background -->
  <rect width="800" height="200" rx="12" fill="url(#bg)"/>

  <!-- Decorative circles -->
  <circle cx="680" cy="30" r="80" fill="url(#accent)"/>
  <circle cx="740" cy="160" r="50" fill="url(#accent)"/>
  <circle cx="60" cy="170" r="60" fill="url(#accent)"/>

  <!-- Grid pattern -->
  <g opacity="0.06" stroke="#fff" stroke-width="1">
    <line x1="0" y1="50" x2="800" y2="50"/>
    <line x1="0" y1="100" x2="800" y2="100"/>
    <line x1="0" y1="150" x2="800" y2="150"/>
    <line x1="200" y1="0" x2="200" y2="200"/>
    <line x1="400" y1="0" x2="400" y2="200"/>
    <line x1="600" y1="0" x2="600" y2="200"/>
  </g>

  <!-- Icon -->
  <text x="240" y="118" font-family="Segoe UI Emoji, Apple Color Emoji, sans-serif" font-size="52" text-anchor="middle">💰</text>

  <!-- Title -->
  <text x="290" y="95" font-family="Segoe UI, system-ui, sans-serif" font-size="42" font-weight="700" fill="#ffffff" letter-spacing="-1">Budget Tracker</text>

  <!-- Subtitle -->
  <text x="290" y="125" font-family="Segoe UI, system-ui, sans-serif" font-size="16" fill="#ffffff" opacity="0.8">Personal Finance Tracker  ·  FastAPI  ·  SQLite  ·  Vanilla JS</text>

  <!-- Tech badges -->
  <g transform="translate(290, 145)">
    <rect x="0" y="0" width="70" height="22" rx="11" fill="#ffffff" opacity="0.2"/>
    <text x="35" y="15" font-family="Segoe UI, sans-serif" font-size="11" fill="#ffffff" text-anchor="middle" font-weight="600">Python</text>

    <rect x="80" y="0" width="70" height="22" rx="11" fill="#ffffff" opacity="0.2"/>
    <text x="115" y="15" font-family="Segoe UI, sans-serif" font-size="11" fill="#ffffff" text-anchor="middle" font-weight="600">FastAPI</text>

    <rect x="160" y="0" width="65" height="22" rx="11" fill="#ffffff" opacity="0.2"/>
    <text x="192" y="15" font-family="Segoe UI, sans-serif" font-size="11" fill="#ffffff" text-anchor="middle" font-weight="600">SQLite</text>

    <rect x="235" y="0" width="55" height="22" rx="11" fill="#ffffff" opacity="0.2"/>
    <text x="262" y="15" font-family="Segoe UI, sans-serif" font-size="11" fill="#ffffff" text-anchor="middle" font-weight="600">REST</text>
  </g>
</svg>
